<?xml version="1.0" encoding="UTF-8"?>
<svg width="156px" height="52px" viewBox="0 0 156 52" version="1.1" xmlns="http://www.w3.org/2000/svg" xmlns:xlink="http://www.w3.org/1999/xlink">
    <!-- Generator: Sketch 50.2 (55047) - http://www.bohemiancoding.com/sketch -->
    <title>Logo W Copy</title>
    <desc>Created with Sketch.</desc>
    <defs></defs>
    <g id="Logo-W-Copy" stroke="none" stroke-width="1" fill="none" fill-rule="evenodd">
        <path d="M45.2,26.2303571 C45.2,28.2946429 46.7111111,29.6 48.6,29.6 C50.4888889,29.6 52,28.2035714 52,26.2303571 C52,24.1964286 50.4888889,22.8 48.6,22.8 C46.7111111,22.8 45.2,24.2571429 45.2,26.2303571 Z M40.8,38 L40.8,19.105949 L45.097006,19.105949 L45.097006,20.8804533 C45.8131737,19.5648725 47.4946108,18.8 49.3628743,18.8 C51.2934132,18.8 52.9437126,19.5036827 54.3137725,20.8804533 C55.7149701,22.2572238 56.4,24.031728 56.4,26.203966 C56.4,28.4373938 55.7149701,30.2424929 54.3137725,31.6192635 C52.9437126,32.996034 51.2934132,33.6997167 49.3628743,33.6997167 C47.4946108,33.6997167 45.8131737,32.9042493 45.097006,31.6498584 L45.097006,38 L40.8,38 Z M74,33.3259259 L69.6875,33.3259259 L69.6875,31.7119342 C69.28125,32.3209877 68.625,32.7777778 67.75,33.1127572 C66.90625,33.4477366 66.125,33.6 65.4375,33.6 C63.46875,33.6 61.75,32.9300412 60.25,31.5596708 C58.75,30.1893004 58,28.3925926 58,26.2 C58,24.0074074 58.75,22.2411523 60.25,20.8707819 C61.75,19.5004115 63.46875,18.8 65.4375,18.8 C66.8125,18.8 68.6875,19.3176955 69.6875,20.6880658 L69.6875,19.1045267 L74,19.1045267 L74,33.3259259 Z M66.0626087,29.6 C67.9408696,29.6 69.6,28.2522523 69.6,26.2 C69.6,24.1477477 67.9408696,22.8 66.0626087,22.8 C65.0921739,22.8 64.2469565,23.1369369 63.4956522,23.7801802 C62.7756522,24.4234234 62.4,25.2198198 62.4,26.2 C62.4,27.1801802 62.7756522,28.0072072 63.4956522,28.6504505 C64.2469565,29.2936937 65.0921739,29.6 66.0626087,29.6 Z M80.7730337,25.7433962 L80.7730337,33.2 L76.4,33.2 L76.4,19.1018868 L80.7730337,19.1018868 L80.7730337,21.154717 C81.5595506,19.7358491 83.2898876,18.8 85.0202247,18.8 C88.4179775,18.8 90.4,20.8226415 90.4,24.7773585 L90.4,33.2 L86.0269663,33.2 L86.0269663,25.6830189 C86.0269663,23.8716981 85.0202247,22.8754717 83.4786517,22.8754717 C81.6853933,22.8754717 80.7730337,23.8415094 80.7730337,25.7433962 Z M97.1730337,25.7433962 L97.1730337,33.2 L92.8,33.2 L92.8,19.1018868 L97.1730337,19.1018868 L97.1730337,21.154717 C97.9595506,19.7358491 99.6898876,18.8 101.420225,18.8 C104.817978,18.8 106.8,20.8226415 106.8,24.7773585 L106.8,33.2 L102.426966,33.2 L102.426966,25.6830189 C102.426966,23.8716981 101.420225,22.8754717 99.8786517,22.8754717 C98.0853933,22.8754717 97.1730337,23.8415094 97.1730337,25.7433962 Z M115.984834,29.6 C117.804739,29.6 119.2,28.3079812 119.2,26.3849765 C119.2,24.5521127 117.774408,23.2 115.984834,23.2 C114.195261,23.2 112.8,24.5521127 112.8,26.3849765 C112.8,28.3079812 114.195261,29.6 115.984834,29.6 Z M121.374845,31.5554639 C119.901856,32.9286598 118.115464,33.6 115.98433,33.6 C113.853196,33.6 112.066804,32.9286598 110.593814,31.5554639 C109.120825,30.182268 108.4,28.3818557 108.4,26.1847423 C108.4,23.9876289 109.120825,22.217732 110.593814,20.8445361 C112.066804,19.4713402 113.853196,18.8 115.98433,18.8 C118.115464,18.8 119.901856,19.4713402 121.374845,20.8445361 C122.847835,22.217732 123.6,23.9876289 123.6,26.1847423 C123.6,28.3818557 122.847835,30.182268 121.374845,31.5554639 Z M141.294118,22.8754717 C139.79699,22.8754717 138.798906,23.8113208 138.798906,25.7433962 L138.798906,33.2 L134.463475,33.2 L134.463475,25.5924528 C134.432285,23.9018868 133.40301,22.8754717 132.061833,22.8754717 C130.595896,22.8754717 129.535431,23.7207547 129.535431,25.7433962 L129.535431,33.2 L125.2,33.2 L125.2,19.1018868 L129.535431,19.1018868 L129.535431,21.154717 C130.190424,19.7056604 131.718741,18.8301887 133.340629,18.8301887 C135.6487,18.8301887 137.208208,19.645283 138.019152,21.3056604 C139.079617,19.645283 140.545554,18.8 142.385773,18.8 C145.91026,18.8 148,21.0037736 148,25.2 L148,33.2 L143.695759,33.2 L143.695759,25.6830189 C143.695759,23.9018868 142.666484,22.8754717 141.294118,22.8754717 Z" id="Text" fill="#FFFFFF"></path>
        <polygon id="Logo" fill="#FFFFFF" points="15.1042451 14.9893082 33.2 7.6 33.2 44.8 7.6 44.8"></polygon>
    </g>
</svg>